# xmcd CD database file
#
# Track frame offsets:
#	182
#	10362
#	26025
#	41860
#	56715
#	69720
#	81812
#	97095
#	106787
#	122970
#	136120
#
# Disc length: 1994 seconds
#
# Revision: 2
# Processed by: cddbd v1.4PL0 Copyright (c) Steve Scherf et al.
# Submitted via: CDex 1.50
#
DISCID=9907c80b
DTITLE=Statler Brothers, The - An American Legend
DYEAR=1996
DGENRE=Country
TTITLE0=Do You Know You Are My Sunshine?
TTITLE1=Elizabeth
TTITLE2=How To Be A Country Star
TTITLE3=It Only Hurts For A Little While
TTITLE4=We Owe It All To Yesterday
TTITLE5=You'll Be Back (Every Night In My Dreams)
TTITLE6=Streets Of Baltimore
TTITLE7=Who Am I To Say
TTITLE8=If It Makes Any Difference
TTITLE9=Amanda
TTITLE10=She Thinks I Still Care
EXTD=YEAR: 1996
EXTT0=
EXTT1=
EXTT2=
EXTT3=
EXTT4=
EXTT5=
EXTT6=
EXTT7=
EXTT8=
EXTT9=
EXTT10=
PLAYORDER=
